<svg xmlns="http://www.w3.org/2000/svg" width="100%" height="100%" transform-origin="50% 50%">
  <symbol id="turtle-symbol" viewBox="0 0 281.766410561104 281.766410561108" transform-origin="50% 50%">
    <path id="turtle-path" d="m 140.883205280552 140.883205280551  l 0 100  l -100 0  l -0 -100  l 100 -0  l -17.364817766693 98.4807753012208  l -98.4807753012208 -17.364817766693  l 17.364817766693 -98.4807753012208  l 98.4807753012208 17.3648177666931  l -34.2020143325668 93.9692620785909  l -93.9692620785909 -34.2020143325668  l 34.2020143325666 -93.9692620785909  l 93.9692620785909 34.2020143325668  l -50 86.6025403784438  l -86.6025403784439 -49.9999999999999  l 50 -86.6025403784438  l 86.602540378444 49.9999999999999  l -64.2787609686539 76.6044443118978  l -76.6044443118979 -64.2787609686538  l 64.2787609686536 -76.604444311898  l 76.6044443118979 64.2787609686538  l -76.6044443118976 64.2787609686542  l -64.2787609686541 -76.6044443118977  l 76.6044443118978 -64.278760968654  l 64.2787609686538 76.6044443118979  l -86.6025403784438 50.0000000000001  l -49.9999999999999 -86.6025403784439  l 86.6025403784436 -50.0000000000004  l 50.0000000000003 86.6025403784437  l -93.9692620785907 34.2020143325673  l -34.2020143325672 -93.9692620785907  l 93.969262078591 -34.2020143325664  l 34.2020143325675 93.9692620785906  l -98.4807753012208 17.3648177666932  l -17.364817766693 -98.4807753012208  l 98.4807753012207 -17.3648177666936  l 17.3648177666934 98.4807753012207  l -100 -1E-13  l -4E-13 -100  l 100 -2E-13  l -6E-13 100  l -98.4807753012209 -17.3648177666928  l 17.3648177666922 -98.480775301221  l 98.4807753012208 17.3648177666931  l -17.3648177666926 98.4807753012209  l -93.9692620785908 -34.2020143325669  l 34.2020143325664 -93.969262078591  l 93.9692620785907 34.2020143325672  l -34.2020143325667 93.9692620785909  l -86.6025403784444 -49.9999999999991  l 49.9999999999998 -86.602540378444  l 86.6025403784442 49.9999999999994  l -50.0000000000001 86.6025403784438  l -76.6044443118983 -64.2787609686534  l 64.278760968654 -76.6044443118977  l 76.6044443118981 64.2787609686536  l -64.2787609686532 76.6044443118984  l -64.2787609686543 -76.6044443118975  l 76.6044443118972 -64.2787609686547  l 64.278760968654 76.6044443118977  l -76.6044443118974 64.2787609686544  l -50.0000000000001 -86.6025403784438  l 86.6025403784442 -49.9999999999994  l 50.0000000000011 86.6025403784432  l -86.6025403784437 50.0000000000003  l -34.2020143325681 -93.9692620785904  l 93.9692620785907 -34.2020143325672  l 34.2020143325664 93.969262078591  l -93.9692620785908 34.2020143325669  l -17.3648177666926 -98.4807753012209  l 98.4807753012206 -17.3648177666945  l 17.3648177666936 98.4807753012207  l -98.4807753012206 17.3648177666942  l -6E-13 -100  l 100 2E-13  l 3E-13 100  l -100 8E-13  l 17.3648177666913 -98.4807753012211  l 98.480775301221 17.3648177666922  l -17.364817766693 98.4807753012208  l -98.4807753012206 -17.3648177666939  l 34.2020143325669 -93.9692620785908  l 93.969262078591 34.2020143325664  l -34.2020143325658 93.9692620785912  l -93.9692620785914 -34.2020143325653  l 50.0000000000003 -86.6025403784437  l 86.602540378444 49.9999999999998  l -49.9999999999993 86.6025403784443  l -86.6025403784431 -50.0000000000013  l 64.2787609686544 -76.6044443118974  l 76.6044443118978 64.278760968654  l -64.2787609686536 76.6044443118981  l -76.6044443118985 -64.2787609686532  l 76.6044443118984 -64.2787609686532  l 64.2787609686536 76.604444311898  l -76.6044443118977 64.2787609686541  l -64.2787609686545 -76.6044443118974  l 86.6025403784431 -50.0000000000014  l 50.0000000000019 86.6025403784428  l -86.6025403784439 49.9999999999999  l -50.0000000000003 -86.6025403784437  l 93.9692620785904 -34.2020143325681  l 34.2020143325659 93.9692620785912  l -93.96926207859 34.2020143325691  l -34.202014332567 -93.9692620785908  l 98.4807753012206 -17.364817766694  l 17.3648177666945 98.4807753012205  l -98.4807753012209 17.3648177666923  l -17.3648177666928 -98.4807753012208  l 100 -7E-13  l 1.2E-12 100  l -100 1.8E-12  l 5E-13 -100  l 98.4807753012209 17.3648177666927  l -17.3648177666921 98.480775301221  l -98.4807753012206 -17.3648177666944  l 17.3648177666911 -98.4807753012212  l 93.9692620785909 34.2020143325668  l -34.2020143325663 93.969262078591  l -93.9692620785922 -34.2020143325631  l 34.2020143325653 -93.9692620785914  l 86.6025403784452 49.9999999999978  l -49.9999999999997 86.602540378444  l -86.6025403784443 -49.9999999999993  l 50.0000000000013 -86.6025403784431  l 76.6044443118993 64.2787609686522  l -64.2787609686518 76.6044443118996  l -76.6044443118981 -64.2787609686535  l 64.2787609686531 -76.6044443118985  l 64.2787609686533 76.6044443118984  l -76.6044443118962 64.2787609686559  l -64.2787609686541 -76.6044443118977  l 76.6044443118973 -64.2787609686545  l 50.0000000000014 86.602540378443  l -86.6025403784442 49.9999999999994  l -50.0000000000024 -86.6025403784425  l 86.6025403784436 -50.0000000000004  l 34.2020143325682 93.9692620785904  l -93.9692620785912 34.202014332566  l -34.2020143325665 -93.969262078591  l 93.9692620785898 -34.2020143325697  l 17.3648177666941 98.4807753012206  l -98.4807753012205 17.3648177666946  l -17.3648177666923 -98.4807753012209  l 98.4807753012204 -17.3648177666957" stroke="currentcolor" stroke-width="0.25%" fill="transparent" class="foreground-stroke" transform-origin="50% 50%">
    </path>
  </symbol>
  <use href="#turtle-symbol" width="100%" height="100%" transform-origin="50% 50%" />
</svg>