<svg xmlns="http://www.w3.org/2000/svg" width="100%" height="100%" transform-origin="50% 50%">
  <symbol id="turtle-symbol" viewBox="0 0 44.0000000000005 44" transform-origin="50% 50%">
    <path id="turtle-path" d="m 22.0000000000001 32  l 3 0  l 0 4  l -5 0  l -0 -6  l 7 -0  l 0 8  l -9 0  l -0 -10  l 11 -0  l 2.4E-14 12  l -13 1.3E-14  l 1.4E-14 -14  l 15 -1.5E-14  l -1.6E-14 16  l -17 1.7E-14  l 1.8E-14 -18  l 19 -1.9E-14  l 6E-14 20  l -21 1.05E-13  l 2.2E-14 -22  l 2.1E-14 3  l -4 -8E-15  l -1.5E-14 -5  l 6 -6E-15  l -0 7  l -8 -1.6E-14  l -2.7E-14 -9  l 10 -2E-14  l -0 11  l -12 -2.4E-14  l -5.2E-14 -13  l 14 -2.8E-14  l 0 15  l -16 9.6E-14  l -6.8E-14 -17  l 18 -1.62E-13  l 0 19  l -20 -2E-14  l -8.4E-14 -21  l 22 -4.4E-14  l -3 3.9E-14  l -1.6E-14 -4  l 5 2E-14  l 6E-15 6  l -7 4.2E-14  l 1.6E-14 -8  l 9 -2.7E-14  l 8E-14 10  l -11 -0  l -6E-14 -12  l 13 5.2E-14  l 1.4E-14 14  l -15 1.05E-13  l 3.2E-14 -16  l 17 -5.1E-14  l 1.62E-13 18  l -19 -0  l -1E-13 -20  l 21 6.3E-14  l 3.52E-13 22  l 3E-15 -3  l 4 -1.6E-14  l -2.5E-14 5  l -6 0  l -4.2E-14 -7  l 8 -8.8E-14  l 1.8E-14 9  l -10 8E-14  l 1.1E-14 -11  l 12 -2.28E-13  l 1.3E-13 13  l -14 1.4E-14  l -9E-14 -15  l 16 3.2E-14  l 5.1E-14 17  l -18 1.44E-13  l -2.66E-13 -19  l 20 -1E-13  l 2.1E-13 21  l -22 -2.86E-13" stroke="currentcolor" stroke-width="0.25%" fill="transparent" class="foreground-stroke" transform-origin="50% 50%">
      <animate attributeName="d" values="m 22.0000000000001 32  l 3 0  l 0 4  l -5 0  l -0 -6  l 7 -0  l 0 8  l -9 0  l -0 -10  l 11 -0  l 2.4E-14 12  l -13 1.3E-14  l 1.4E-14 -14  l 15 -1.5E-14  l -1.6E-14 16  l -17 1.7E-14  l 1.8E-14 -18  l 19 -1.9E-14  l 6E-14 20  l -21 1.05E-13  l 2.2E-14 -22  l 2.1E-14 3  l -4 -8E-15  l -1.5E-14 -5  l 6 -6E-15  l -0 7  l -8 -1.6E-14  l -2.7E-14 -9  l 10 -2E-14  l -0 11  l -12 -2.4E-14  l -5.2E-14 -13  l 14 -2.8E-14  l 0 15  l -16 9.6E-14  l -6.8E-14 -17  l 18 -1.62E-13  l 0 19  l -20 -2E-14  l -8.4E-14 -21  l 22 -4.4E-14  l -3 3.9E-14  l -1.6E-14 -4  l 5 2E-14  l 6E-15 6  l -7 4.2E-14  l 1.6E-14 -8  l 9 -2.7E-14  l 8E-14 10  l -11 -0  l -6E-14 -12  l 13 5.2E-14  l 1.4E-14 14  l -15 1.05E-13  l 3.2E-14 -16  l 17 -5.1E-14  l 1.62E-13 18  l -19 -0  l -1E-13 -20  l 21 6.3E-14  l 3.52E-13 22  l 3E-15 -3  l 4 -1.6E-14  l -2.5E-14 5  l -6 0  l -4.2E-14 -7  l 8 -8.8E-14  l 1.8E-14 9  l -10 8E-14  l 1.1E-14 -11  l 12 -2.28E-13  l 1.3E-13 13  l -14 1.4E-14  l -9E-14 -15  l 16 3.2E-14  l 5.1E-14 17  l -18 1.44E-13  l -2.66E-13 -19  l 20 -1E-13  l 2.1E-13 21  l -22 -2.86E-13;m 31 21.0000000000001  l 3 0  l 0 4  l -5 0  l -0 -6  l 7 -0  l 0 8  l -9 0  l -0 -10  l 11 -0  l 2.4E-14 12  l -13 1.3E-14  l 1.4E-14 -14  l 15 -1.5E-14  l -1.6E-14 16  l -17 1.7E-14  l 1.8E-14 -18  l 19 -1.9E-14  l 6E-14 20  l -21 1.05E-13  l 2.2E-14 -22  l 3E-15 -3  l 4 -4E-15  l 3.5E-14 5  l -6 -1.2E-14  l -2.1E-14 -7  l 8 -8E-15  l -0 9  l -10 -2E-14  l -3.3E-14 -11  l 12 -2.4E-14  l -0 13  l -14 -2.8E-14  l -6E-14 -15  l 16 -3.2E-14  l 0 17  l -18 1.08E-13  l -7.6E-14 -19  l 20 -1.8E-13  l 0 21  l -22 -2.2E-14  l -3 -3E-15  l -1.6E-14 -4  l 5 -1E-14  l -3.6E-14 6  l -7 9.1E-14  l -3.2E-14 -8  l 9 3.6E-14  l 1E-14 10  l -11 6.6E-14  l 2.4E-14 -12  l 13 -3.9E-14  l 1.12E-13 14  l -15 -0  l -8E-14 -16  l 17 6.8E-14  l 1.8E-14 18  l -19 1.33E-13  l 4E-14 -20  l 21 -6.3E-14  l 1.98E-13 22  l 2.7E-14 3  l -4 -0  l -2.5E-14 -5  l 6 1.8E-14  l 1.12E-13 7  l -8 5.6E-14  l 9E-15 -9  l 10 -4E-14  l -5.5E-14 11  l -12 0  l -7.8E-14 -13  l 14 -1.54E-13  l 3E-14 15  l -16 1.28E-13  l 1.7E-14 -17  l 18 -3.42E-13  l 1.9E-13 19  l -20 2E-14  l -1.26E-13 -21  l 22 4.4E-14;m 22.0000000000001 32  l 3 0  l 0 4  l -5 0  l -0 -6  l 7 -0  l 0 8  l -9 0  l -0 -10  l 11 -0  l 2.4E-14 12  l -13 1.3E-14  l 1.4E-14 -14  l 15 -1.5E-14  l -1.6E-14 16  l -17 1.7E-14  l 1.8E-14 -18  l 19 -1.9E-14  l 6E-14 20  l -21 1.05E-13  l 2.2E-14 -22  l 2.1E-14 3  l -4 -8E-15  l -1.5E-14 -5  l 6 -6E-15  l -0 7  l -8 -1.6E-14  l -2.7E-14 -9  l 10 -2E-14  l -0 11  l -12 -2.4E-14  l -5.2E-14 -13  l 14 -2.8E-14  l 0 15  l -16 9.6E-14  l -6.8E-14 -17  l 18 -1.62E-13  l 0 19  l -20 -2E-14  l -8.4E-14 -21  l 22 -4.4E-14  l -3 3.9E-14  l -1.6E-14 -4  l 5 2E-14  l 6E-15 6  l -7 4.2E-14  l 1.6E-14 -8  l 9 -2.7E-14  l 8E-14 10  l -11 -0  l -6E-14 -12  l 13 5.2E-14  l 1.4E-14 14  l -15 1.05E-13  l 3.2E-14 -16  l 17 -5.1E-14  l 1.62E-13 18  l -19 -0  l -1E-13 -20  l 21 6.3E-14  l 3.52E-13 22  l 3E-15 -3  l 4 -1.6E-14  l -2.5E-14 5  l -6 0  l -4.2E-14 -7  l 8 -8.8E-14  l 1.8E-14 9  l -10 8E-14  l 1.1E-14 -11  l 12 -2.28E-13  l 1.3E-13 13  l -14 1.4E-14  l -9E-14 -15  l 16 3.2E-14  l 5.1E-14 17  l -18 1.44E-13  l -2.66E-13 -19  l 20 -1E-13  l 2.1E-13 21  l -22 -2.86E-13" repeatCount="indefinite" dur="4.2s" attributeType="XML" />
    </path>
  </symbol>
  <use href="#turtle-symbol" width="100%" height="100%" transform-origin="50% 50%" />
</svg>